<svg width="36" height="36" viewBox="0 0 36 36" fill="none" xmlns="http://www.w3.org/2000/svg">
<g clip-path="url(#clip0_345_2158)">
<path d="M35.5625 18.0625C35.5625 27.7275 27.7275 35.5625 18.0625 35.5625C8.39749 35.5625 0.5625 27.7275 0.5625 18.0625C0.5625 8.39749 8.39749 0.5625 18.0625 0.5625C27.7275 0.5625 35.5625 8.39749 35.5625 18.0625ZM25.567 15.5695C25.9153 13.2409 24.1422 11.9891 21.7177 11.154L22.5042 7.99965L20.5839 7.52115L19.8182 10.5924C19.3134 10.4666 18.7949 10.348 18.2797 10.2304L19.0509 7.13897L17.1317 6.66047L16.3447 9.81372C15.9268 9.71853 15.5166 9.62447 15.1185 9.52553L15.1207 9.51566L12.4724 8.85447L11.9616 10.9052C11.9616 10.9052 13.3863 11.2317 13.3563 11.2519C14.134 11.446 14.2746 11.9606 14.251 12.3686L13.3551 15.9621C13.4088 15.9758 13.4782 15.9955 13.5548 16.0261C13.4908 16.0102 13.4224 15.9927 13.3518 15.9758L12.0961 21.0097C12.0009 21.2459 11.7597 21.6003 11.216 21.4658C11.2352 21.4937 9.82028 21.1174 9.82028 21.1174L8.86696 23.3153L11.3659 23.9382C11.8308 24.0547 12.2864 24.1766 12.7349 24.2914L11.9402 27.4819L13.8583 27.9604L14.6453 24.8038C15.1539 24.9417 15.6641 25.074 16.1756 25.2009L15.3913 28.3426L17.3116 28.8211L18.1062 25.6367C21.3807 26.2563 23.8431 26.0064 24.8795 23.0451C25.7147 20.6607 24.8379 19.2853 23.1151 18.3884C24.3697 18.0993 25.3148 17.2741 25.567 15.5695ZM21.1795 21.7212C20.586 24.1056 16.571 22.8166 15.2693 22.4934L16.3239 18.2666C17.6255 18.5915 21.7997 19.2346 21.1795 21.7212ZM21.7734 15.535C21.232 17.7039 17.8902 16.602 16.8062 16.3318L17.7622 12.4983C18.8463 12.7684 22.3373 13.2726 21.7734 15.535Z" fill="#4ECB71"/>
</g>
<defs>
<clipPath id="clip0_345_2158">
<rect width="36" height="36" fill="white"/>
</clipPath>
</defs>
</svg>
