<svg width="40" height="40" viewBox="0 0 40 40" fill="none" xmlns="http://www.w3.org/2000/svg">
<path d="M20.0082 36.6717C10.8032 36.6717 3.34155 29.21 3.34155 20.005C3.34155 10.8 10.8032 3.33838 20.0082 3.33838C29.2132 3.33838 36.6749 10.8 36.6749 20.005C36.6749 29.21 29.2132 36.6717 20.0082 36.6717ZM14.1749 23.3384V26.6717H18.3416V30.005H21.6749V26.6717H23.3416C24.4466 26.6717 25.5064 26.2327 26.2878 25.4513C27.0692 24.6699 27.5082 23.6101 27.5082 22.505C27.5082 21.4 27.0692 20.3402 26.2878 19.5588C25.5064 18.7774 24.4466 18.3384 23.3416 18.3384H16.6749C16.4539 18.3384 16.2419 18.2506 16.0856 18.0943C15.9293 17.938 15.8416 17.7261 15.8416 17.505C15.8416 17.284 15.9293 17.0721 16.0856 16.9158C16.2419 16.7595 16.4539 16.6717 16.6749 16.6717H25.8416V13.3384H21.6749V10.005H18.3416V13.3384H16.6749C15.5698 13.3384 14.51 13.7774 13.7286 14.5588C12.9472 15.3402 12.5082 16.4 12.5082 17.505C12.5082 18.6101 12.9472 19.6699 13.7286 20.4513C14.51 21.2327 15.5698 21.6717 16.6749 21.6717H23.3416C23.5626 21.6717 23.7745 21.7595 23.9308 21.9158C24.0871 22.0721 24.1749 22.284 24.1749 22.505C24.1749 22.7261 24.0871 22.938 23.9308 23.0943C23.7745 23.2506 23.5626 23.3384 23.3416 23.3384H14.1749Z" fill="#699BF7"/>
</svg>
