<svg width="36" height="36" viewBox="0 0 36 36" fill="none" xmlns="http://www.w3.org/2000/svg">
<g clip-path="url(#clip0_345_2160)">
<path d="M18 2C14.8355 2 11.7421 2.93838 9.11088 4.69649C6.4797 6.45459 4.42894 8.95345 3.21793 11.8771C2.00693 14.8007 1.69008 18.0177 2.30744 21.1214C2.92481 24.2251 4.44866 27.0761 6.6863 29.3137C8.92394 31.5513 11.7749 33.0752 14.8786 33.6926C17.9823 34.3099 21.1993 33.9931 24.1229 32.7821C27.0466 31.5711 29.5454 29.5203 31.3035 26.8891C33.0616 24.2579 34 21.1645 34 18C34 13.7565 32.3143 9.68687 29.3137 6.68629C26.3131 3.68571 22.2435 2 18 2ZM25.42 27.16C23.9966 28.0468 22.3875 28.5926 20.7183 28.7547C19.0491 28.9168 17.365 28.6909 15.7976 28.0945C14.2301 27.4981 12.8218 26.5475 11.6825 25.3168C10.5432 24.0861 9.70389 22.6087 9.23001 21H5.84001C5.57479 21 5.32044 20.8946 5.1329 20.7071C4.94536 20.5196 4.84001 20.2652 4.84001 20C4.84001 19.7348 4.94536 19.4804 5.1329 19.2929C5.32044 19.1054 5.57479 19 5.84001 19H8.84001C8.84001 18.65 8.79001 18.29 8.79001 17.93V17H5.79001C5.52479 17 5.27044 16.8946 5.0829 16.7071C4.89536 16.5196 4.79001 16.2652 4.79001 16C4.79001 15.7348 4.89536 15.4804 5.0829 15.2929C5.27044 15.1054 5.52479 15 5.79001 15H9.19001C9.64272 13.3759 10.4673 11.8796 11.5986 10.6294C12.7298 9.37927 14.1366 8.40967 15.7075 7.79742C17.2784 7.18517 18.9702 6.94708 20.6491 7.10201C22.328 7.25693 23.9477 7.80061 25.38 8.69C25.6449 8.87234 25.8293 9.14974 25.8949 9.46455C25.9606 9.77936 25.9023 10.1074 25.7324 10.3803C25.5624 10.6533 25.2938 10.8503 24.9823 10.9303C24.6708 11.0103 24.3405 10.9672 24.06 10.81C23.008 10.1578 21.8242 9.74737 20.5942 9.60833C19.3642 9.46929 18.1187 9.60513 16.9476 10.006C15.7765 10.4069 14.7091 11.0629 13.8223 11.9265C12.9356 12.7901 12.2517 13.8399 11.82 15H21.18C21.4452 15 21.6996 15.1054 21.8871 15.2929C22.0746 15.4804 22.18 15.7348 22.18 16C22.18 16.2652 22.0746 16.5196 21.8871 16.7071C21.6996 16.8946 21.4452 17 21.18 17H11.33C11.2433 17.6638 11.2433 18.3362 11.33 19H21.15C21.4152 19 21.6696 19.1054 21.8571 19.2929C22.0447 19.4804 22.15 19.7348 22.15 20C22.15 20.2652 22.0447 20.5196 21.8571 20.7071C21.6696 20.8946 21.4152 21 21.15 21H11.87C12.322 22.141 13.0197 23.1686 13.9135 24.0096C14.8073 24.8507 15.8753 25.4846 17.0417 25.8664C18.2081 26.2482 19.4443 26.3685 20.6624 26.2188C21.8806 26.069 23.0508 25.6529 24.09 25C24.2292 24.9127 24.3842 24.8536 24.5463 24.8262C24.7083 24.7988 24.8741 24.8036 25.0343 24.8402C25.1945 24.8769 25.3459 24.9448 25.4798 25.04C25.6138 25.1352 25.7277 25.2558 25.815 25.395C25.9023 25.5342 25.9614 25.6892 25.9888 25.8513C26.0162 26.0133 26.0114 26.1791 25.9748 26.3393C25.9381 26.4995 25.8702 26.6509 25.775 26.7848C25.6798 26.9188 25.5592 27.0327 25.42 27.12V27.16Z" fill="#D27C2C"/>
</g>
<defs>
<clipPath id="clip0_345_2160">
<rect width="36" height="36" fill="white"/>
</clipPath>
</defs>
</svg>
