<svg width="40" height="40" viewBox="0 0 40 40" fill="none" xmlns="http://www.w3.org/2000/svg">
<g clip-path="url(#clip0_348_2189)">
<path fill-rule="evenodd" clip-rule="evenodd" d="M17.28 22.72C17.6368 23.0776 18.0608 23.3611 18.5276 23.5544C18.9944 23.7477 19.4948 23.8468 20 23.8461C21.0338 23.8461 22.003 23.4354 22.72 22.72C23.0776 22.3631 23.3611 21.9391 23.5544 21.4723C23.7477 21.0055 23.8468 20.5052 23.8461 20C23.8461 18.9661 23.4354 17.9969 22.72 17.28C22.3631 16.9224 21.9391 16.6388 21.4723 16.4455C21.0055 16.2523 20.5052 16.1531 20 16.1538C18.9661 16.1538 17.9969 16.5646 17.28 17.28C16.9224 17.6368 16.6388 18.0608 16.4455 18.5276C16.2523 18.9944 16.1531 19.4948 16.1538 20C16.1538 21.0338 16.5646 22.003 17.28 22.72ZM21.6323 21.6323C21.2015 22.063 20.6215 22.3077 20 22.3077C19.3784 22.3077 18.8 22.0615 18.3692 21.6307C17.9384 21.2 17.6923 20.6215 17.6923 20C17.6923 19.3784 17.9384 18.8 18.3692 18.3692C18.8 17.9384 19.3784 17.6923 20 17.6923C20.6215 17.6923 21.2 17.9384 21.6307 18.3692C22.0615 18.8 22.3077 19.3784 22.3077 20C22.3077 20.6215 22.0615 21.2 21.6307 21.6307L21.6323 21.6323Z" fill="white"/>
<path fill-rule="evenodd" clip-rule="evenodd" d="M26.4861 10.42L24.5323 11.5184C23.9609 11.2121 23.3599 10.9647 22.7384 10.78L22.0154 8.6046C21.9646 8.4512 21.8669 8.31767 21.736 8.22295C21.6051 8.12823 21.4477 8.07713 21.2861 8.0769H18.5538C18.3861 8.07705 18.2231 8.13199 18.0895 8.23336C17.9559 8.33473 17.8591 8.47698 17.8138 8.63844L17.2108 10.7969C16.59 10.9847 15.99 11.2353 15.42 11.5446L13.3692 10.5154C13.2246 10.4429 13.0608 10.4179 12.9012 10.4439C12.7416 10.4698 12.5942 10.5455 12.48 10.66L10.5461 12.5923C10.4274 12.7111 10.3508 12.8654 10.328 13.0318C10.3052 13.1982 10.3375 13.3675 10.42 13.5138L11.5184 15.4677C11.2123 16.0369 10.9646 16.6369 10.78 17.2615L8.6046 17.9846C8.4512 18.0353 8.31767 18.1331 8.22295 18.264C8.12823 18.3949 8.07713 18.5523 8.0769 18.7138V21.4477C8.07705 21.6154 8.13199 21.7784 8.23336 21.912C8.33473 22.0456 8.47698 22.1424 8.63844 22.1877L10.7969 22.7908C10.9846 23.4138 11.2354 24.0123 11.5446 24.5815L10.5154 26.6323C10.4429 26.7769 10.4179 26.9407 10.4439 27.1003C10.4698 27.2599 10.5455 27.4073 10.66 27.5215L12.5923 29.4538C12.7111 29.5726 12.8654 29.6492 13.0318 29.672C13.1982 29.6947 13.3675 29.6624 13.5138 29.58L15.4677 28.4815C16.0369 28.7877 16.6369 29.0354 17.2615 29.22L17.9846 31.3969C18.0356 31.55 18.1335 31.6832 18.2643 31.7776C18.3952 31.8721 18.5524 31.9229 18.7138 31.9231H21.4477C21.6154 31.9229 21.7784 31.868 21.912 31.7666C22.0456 31.6652 22.1424 31.523 22.1877 31.3615L22.7908 29.2031C23.4115 29.0153 24.0115 28.7647 24.5815 28.4554L26.6323 29.4846C26.7767 29.5572 26.9404 29.5825 27.1 29.5568C27.2597 29.5311 27.4071 29.4558 27.5215 29.3415L29.4538 27.4077C29.5726 27.2889 29.6492 27.1345 29.672 26.9681C29.6947 26.8017 29.6624 26.6325 29.58 26.4861L28.4815 24.5323C28.7877 23.9631 29.0354 23.3631 29.22 22.7384L31.3969 22.0154C31.55 21.9644 31.6832 21.8665 31.7776 21.7356C31.8721 21.6048 31.9229 21.4475 31.9231 21.2861V18.5538C31.9229 18.3861 31.868 18.2231 31.7666 18.0895C31.6652 17.9559 31.523 17.8591 31.3615 17.8138L29.2031 17.2108C29.0153 16.59 28.7648 15.99 28.4554 15.42L29.4846 13.3692C29.5572 13.2248 29.5825 13.0611 29.5568 12.9015C29.5311 12.7418 29.4558 12.5944 29.3415 12.48L27.4077 10.5477C27.2889 10.4289 27.1345 10.3523 26.9681 10.3295C26.8017 10.3068 26.6325 10.3391 26.4861 10.4215V10.42ZM24.9107 13.0723L26.7323 12.0461L27.86 13.1738L26.8954 15.0969C26.8373 15.2129 26.8095 15.3418 26.8146 15.4714C26.8198 15.6011 26.8576 15.7273 26.9246 15.8384C27.3323 16.5154 27.6384 17.2508 27.8323 18.02C27.8652 18.1516 27.9324 18.2721 28.027 18.3694C28.1215 18.4667 28.2401 18.5372 28.3708 18.5738L30.3846 19.1369V20.7323L28.3431 21.4092C28.2201 21.4503 28.1095 21.5217 28.0216 21.6169C27.9336 21.7121 27.8712 21.828 27.84 21.9538C27.6489 22.7225 27.3451 23.4587 26.9384 24.1384C26.8687 24.2548 26.831 24.3875 26.8291 24.5231C26.8272 24.6588 26.8612 24.7925 26.9277 24.9107L27.9538 26.7323L26.8261 27.86L24.9031 26.8954C24.787 26.8373 24.6582 26.8095 24.5285 26.8146C24.3989 26.8198 24.2726 26.8576 24.1615 26.9246C23.4846 27.3323 22.7492 27.6384 21.98 27.8323C21.8484 27.8652 21.7278 27.9324 21.6306 28.027C21.5333 28.1215 21.4628 28.2401 21.4261 28.3708L20.8631 30.3846H19.2692L18.5923 28.3431C18.5511 28.2199 18.4794 28.1092 18.3839 28.0213C18.2884 27.9333 18.1722 27.8709 18.0461 27.84C17.2774 27.6489 16.5413 27.3451 15.8615 26.9384C15.7452 26.8687 15.6124 26.831 15.4768 26.8291C15.3412 26.8272 15.2075 26.8612 15.0892 26.9277L13.2677 27.9538L12.14 26.8261L13.1046 24.9031C13.1627 24.787 13.1904 24.6582 13.1853 24.5285C13.1802 24.3989 13.1424 24.2726 13.0754 24.1615C12.6668 23.4831 12.3609 22.748 12.1677 21.98C12.1347 21.8484 12.0676 21.7278 11.973 21.6306C11.8784 21.5333 11.7598 21.4628 11.6292 21.4261L9.61537 20.8631V19.2692L11.6569 18.5923C11.78 18.5511 11.8907 18.4794 11.9787 18.3839C12.0667 18.2884 12.129 18.1722 12.16 18.0461C12.3523 17.2769 12.6569 16.54 13.0615 15.8615C13.1312 15.7452 13.169 15.6124 13.1709 15.4768C13.1728 15.3412 13.1387 15.2075 13.0723 15.0892L12.0461 13.2677L13.1738 12.14L15.0969 13.1046C15.2129 13.1627 15.3418 13.1904 15.4714 13.1853C15.6011 13.1802 15.7273 13.1424 15.8384 13.0754C16.5154 12.6677 17.2508 12.3615 18.02 12.1677C18.1516 12.1347 18.2721 12.0676 18.3694 11.973C18.4667 11.8784 18.5372 11.7598 18.5738 11.6292L19.1369 9.61537H20.7323L21.4092 11.6569C21.4503 11.7799 21.5217 11.8904 21.6169 11.9784C21.7121 12.0663 21.828 12.1288 21.9538 12.16C22.7231 12.3523 23.46 12.6569 24.1384 13.0615C24.2548 13.1312 24.3875 13.169 24.5231 13.1709C24.6588 13.1728 24.7925 13.1387 24.9107 13.0723Z" fill="white"/>
<path fill-rule="evenodd" clip-rule="evenodd" d="M20.0001 37.6923C29.7708 37.6923 37.6924 29.7708 37.6924 20C37.6924 10.2292 29.7708 2.30769 20.0001 2.30769C10.2293 2.30769 2.30775 10.2292 2.30775 20C2.30775 29.7708 10.2293 37.6923 20.0001 37.6923ZM20.0001 39.2308C30.6216 39.2308 39.2308 30.6215 39.2308 20C39.2308 9.37846 30.6216 0.769226 20.0001 0.769226C9.37852 0.769226 0.769287 9.37846 0.769287 20C0.769287 30.6215 9.37852 39.2308 20.0001 39.2308Z" fill="white"/>
</g>
<defs>
<clipPath id="clip0_348_2189">
<rect width="40" height="40" fill="white"/>
</clipPath>
</defs>
</svg>
