<svg width="169" height="94" viewBox="0 0 169 94" fill="none" xmlns="http://www.w3.org/2000/svg">
<path d="M67.5916 29.7214L60.9868 36.194V17.6127H67.5916M78.5995 25.6705L75.143 22.7203L71.9947 25.6264V8.80633H78.5995M89.6074 22.0158L83.0026 28.6206V0L89.6074 0M95.7938 21.5975L91.809 17.6127H102.817V28.6206L98.876 24.6797L83.0026 40.4211L75.3631 33.7723L67.0412 41.8301H60.9868L75.2311 27.872L83.0026 34.4327" fill="white"/>
<path d="M3.21447 54.2H17.9545C18.7171 54.2 19.3478 54.4493 19.8465 54.948C20.3745 55.4173 20.6385 56.0333 20.6385 56.796C20.6385 57.5293 20.3745 58.1307 19.8465 58.6C19.3478 59.04 18.7171 59.26 17.9545 59.26H5.63447L6.03047 58.512V67.092L5.67847 66.74H15.9745C16.7371 66.74 17.3678 66.9893 17.8665 67.488C18.3945 67.9573 18.6585 68.5733 18.6585 69.336C18.6585 70.0693 18.3945 70.6707 17.8665 71.14C17.3678 71.58 16.7371 71.8 15.9745 71.8H5.81047L6.03047 71.448V80.336L5.67847 79.94H17.9545C18.7171 79.94 19.3478 80.204 19.8465 80.732C20.3745 81.2307 20.6385 81.8173 20.6385 82.492C20.6385 83.2253 20.3745 83.8267 19.8465 84.296C19.3478 84.7653 18.7171 85 17.9545 85H3.21447C2.4518 85 1.80647 84.7507 1.27847 84.252C0.779802 83.724 0.530469 83.0787 0.530469 82.316V56.884C0.530469 56.1213 0.779802 55.4907 1.27847 54.992C1.80647 54.464 2.4518 54.2 3.21447 54.2ZM44.5422 61.02C45.3048 61.02 45.9355 61.2693 46.4342 61.768C46.9328 62.2667 47.1822 62.912 47.1822 63.704V82.316C47.1822 83.0787 46.9328 83.724 46.4342 84.252C45.9355 84.7507 45.3048 85 44.5422 85C43.7795 85 43.1488 84.7507 42.6502 84.252C42.1515 83.724 41.9022 83.0787 41.9022 82.316V80.16L42.8702 80.556C42.8702 80.9373 42.6648 81.4067 42.2542 81.964C41.8435 82.492 41.2862 83.02 40.5822 83.548C39.8782 84.076 39.0422 84.5307 38.0742 84.912C37.1355 85.264 36.1088 85.44 34.9942 85.44C32.9702 85.44 31.1368 84.9267 29.4942 83.9C27.8515 82.844 26.5462 81.4067 25.5782 79.588C24.6395 77.74 24.1702 75.628 24.1702 73.252C24.1702 70.8467 24.6395 68.7347 25.5782 66.916C26.5462 65.068 27.8368 63.6307 29.4502 62.604C31.0635 61.548 32.8528 61.02 34.8182 61.02C36.0795 61.02 37.2382 61.2107 38.2942 61.592C39.3502 61.9733 40.2595 62.4573 41.0222 63.044C41.8142 63.6307 42.4155 64.232 42.8262 64.848C43.2662 65.4347 43.4862 65.9333 43.4862 66.344L41.9022 66.916V63.704C41.9022 62.9413 42.1515 62.3107 42.6502 61.812C43.1488 61.284 43.7795 61.02 44.5422 61.02ZM35.6542 80.6C36.9448 80.6 38.0742 80.2773 39.0422 79.632C40.0102 78.9867 40.7582 78.1067 41.2862 76.992C41.8435 75.8773 42.1222 74.6307 42.1222 73.252C42.1222 71.844 41.8435 70.5827 41.2862 69.468C40.7582 68.3533 40.0102 67.4733 39.0422 66.828C38.0742 66.1827 36.9448 65.86 35.6542 65.86C34.3928 65.86 33.2782 66.1827 32.3102 66.828C31.3422 67.4733 30.5795 68.3533 30.0222 69.468C29.4942 70.5827 29.2302 71.844 29.2302 73.252C29.2302 74.6307 29.4942 75.8773 30.0222 76.992C30.5795 78.1067 31.3422 78.9867 32.3102 79.632C33.2782 80.2773 34.3928 80.6 35.6542 80.6ZM51.5351 81.348C51.2417 80.9373 51.1097 80.4093 51.1391 79.764C51.1684 79.1187 51.5497 78.5613 52.2831 78.092C52.7524 77.7987 53.2511 77.6813 53.7791 77.74C54.3071 77.7693 54.8204 78.0333 55.3191 78.532C56.1697 79.3827 57.0644 80.0427 58.0031 80.512C58.9417 80.9813 60.1151 81.216 61.5231 81.216C61.9631 81.1867 62.4471 81.128 62.9751 81.04C63.5031 80.9227 63.9577 80.688 64.3391 80.336C64.7497 79.9547 64.9551 79.3827 64.9551 78.62C64.9551 77.9747 64.7351 77.4613 64.2951 77.08C63.8551 76.6987 63.2684 76.376 62.5351 76.112C61.8311 75.848 61.0391 75.5987 60.1591 75.364C59.2497 75.1 58.3111 74.8067 57.3431 74.484C56.4044 74.1613 55.5391 73.7507 54.7471 73.252C53.9551 72.724 53.3097 72.0347 52.8111 71.184C52.3124 70.3333 52.0631 69.2627 52.0631 67.972C52.0631 66.5053 52.4737 65.2587 53.2951 64.232C54.1164 63.2053 55.1724 62.4133 56.4631 61.856C57.7831 61.2987 59.1617 61.02 60.5991 61.02C61.5084 61.02 62.4617 61.1373 63.4591 61.372C64.4564 61.5773 65.4097 61.9293 66.3191 62.428C67.2284 62.8973 67.9911 63.528 68.6071 64.32C68.9297 64.76 69.1204 65.288 69.1791 65.904C69.2377 66.52 68.9591 67.0773 68.3431 67.576C67.9031 67.928 67.3897 68.0893 66.8031 68.06C66.2164 68.0013 65.7324 67.796 65.3511 67.444C64.8524 66.7987 64.1777 66.2853 63.3271 65.904C62.5057 65.5227 61.5524 65.332 60.4671 65.332C60.0271 65.332 59.5431 65.3907 59.0151 65.508C58.5164 65.596 58.0764 65.816 57.6951 66.168C57.3137 66.4907 57.1231 67.0187 57.1231 67.752C57.1231 68.4267 57.3431 68.9693 57.7831 69.38C58.2231 69.7613 58.8097 70.084 59.5431 70.348C60.3057 70.5827 61.1124 70.8173 61.9631 71.052C62.8431 71.2867 63.7377 71.5653 64.6471 71.888C65.5564 72.2107 66.3924 72.636 67.1551 73.164C67.9177 73.692 68.5337 74.3813 69.0031 75.232C69.4724 76.0533 69.7071 77.1093 69.7071 78.4C69.7071 79.896 69.2671 81.172 68.3871 82.228C67.5071 83.284 66.4071 84.0907 65.0871 84.648C63.7671 85.176 62.4177 85.44 61.0391 85.44C59.3084 85.44 57.5777 85.1467 55.8471 84.56C54.1164 83.944 52.6791 82.8733 51.5351 81.348ZM91.5936 61.46C92.3563 61.46 92.987 61.724 93.4856 62.252C93.9843 62.7507 94.2336 63.3813 94.2336 64.144V82.844C94.2336 85.5427 93.7203 87.684 92.6936 89.268C91.6963 90.8813 90.347 92.04 88.6456 92.744C86.9443 93.448 85.0376 93.8 82.9256 93.8C81.987 93.8 80.9896 93.7267 79.9336 93.58C78.8776 93.4333 78.0123 93.2133 77.3376 92.92C76.4576 92.5387 75.8416 92.0547 75.4896 91.468C75.167 90.9107 75.1083 90.3093 75.3136 89.664C75.5776 88.8133 76.003 88.2267 76.5896 87.904C77.1763 87.6107 77.7923 87.5813 78.4376 87.816C78.907 87.9627 79.523 88.1827 80.2856 88.476C81.0483 88.7987 81.9283 88.96 82.9256 88.96C84.275 88.96 85.3896 88.7693 86.2696 88.388C87.179 88.036 87.8536 87.42 88.2936 86.54C88.763 85.6893 88.9976 84.516 88.9976 83.02V80.072L89.9216 81.128C89.423 82.096 88.7923 82.9027 88.0296 83.548C87.2963 84.164 86.4163 84.6333 85.3896 84.956C84.363 85.2787 83.1896 85.44 81.8696 85.44C80.315 85.44 78.951 85.088 77.7776 84.384C76.6336 83.6507 75.739 82.6533 75.0936 81.392C74.4483 80.1013 74.1256 78.6347 74.1256 76.992V64.144C74.1256 63.3813 74.375 62.7507 74.8736 62.252C75.3723 61.724 76.003 61.46 76.7656 61.46C77.5283 61.46 78.159 61.724 78.6576 62.252C79.1563 62.7507 79.4056 63.3813 79.4056 64.144V75.408C79.4056 77.3147 79.8163 78.664 80.6376 79.456C81.4883 80.2187 82.6616 80.6 84.1576 80.6C85.1843 80.6 86.0496 80.4093 86.7536 80.028C87.4576 79.6173 88.0003 79.0307 88.3816 78.268C88.763 77.476 88.9536 76.5227 88.9536 75.408V64.144C88.9536 63.3813 89.203 62.7507 89.7016 62.252C90.2003 61.724 90.831 61.46 91.5936 61.46ZM114.162 54.2C116.978 54.2 119.075 54.86 120.454 56.18C121.833 57.5 122.522 59.4507 122.522 62.032C122.522 63.4107 122.185 64.628 121.51 65.684C120.835 66.7107 119.838 67.5173 118.518 68.104C117.198 68.6613 115.57 68.94 113.634 68.94L113.81 66.96C114.719 66.96 115.761 67.092 116.934 67.356C118.107 67.5907 119.237 68.0307 120.322 68.676C121.437 69.292 122.346 70.172 123.05 71.316C123.783 72.4307 124.15 73.868 124.15 75.628C124.15 77.564 123.827 79.148 123.182 80.38C122.566 81.612 121.745 82.5653 120.718 83.24C119.691 83.9147 118.591 84.384 117.418 84.648C116.245 84.8827 115.115 85 114.03 85H103.074C102.311 85 101.666 84.7507 101.138 84.252C100.639 83.724 100.39 83.0787 100.39 82.316V56.884C100.39 56.1213 100.639 55.4907 101.138 54.992C101.666 54.464 102.311 54.2 103.074 54.2H114.162ZM113.37 59.392H105.538L106.11 58.688V66.652L105.582 66.256H113.502C114.353 66.256 115.115 65.9773 115.79 65.42C116.465 64.8627 116.802 64.056 116.802 63C116.802 61.7387 116.479 60.8293 115.834 60.272C115.218 59.6853 114.397 59.392 113.37 59.392ZM113.722 71.448H105.714L106.11 71.096V80.38L105.67 79.94H114.03C115.379 79.94 116.45 79.588 117.242 78.884C118.034 78.1507 118.43 77.0653 118.43 75.628C118.43 74.308 118.166 73.3547 117.638 72.768C117.11 72.1813 116.479 71.8147 115.746 71.668C115.013 71.5213 114.338 71.448 113.722 71.448ZM133.754 82.316C133.754 83.0787 133.505 83.724 133.006 84.252C132.507 84.7507 131.877 85 131.114 85C130.351 85 129.721 84.7507 129.222 84.252C128.723 83.724 128.474 83.0787 128.474 82.316V64.144C128.474 63.3813 128.723 62.7507 129.222 62.252C129.721 61.724 130.351 61.46 131.114 61.46C131.877 61.46 132.507 61.724 133.006 62.252C133.505 62.7507 133.754 63.3813 133.754 64.144V82.316ZM131.07 58.6C130.073 58.6 129.369 58.4387 128.958 58.116C128.547 57.7933 128.342 57.2213 128.342 56.4V55.564C128.342 54.7133 128.562 54.1413 129.002 53.848C129.471 53.5253 130.175 53.364 131.114 53.364C132.141 53.364 132.859 53.5253 133.27 53.848C133.681 54.1707 133.886 54.7427 133.886 55.564V56.4C133.886 57.2507 133.666 57.8373 133.226 58.16C132.786 58.4533 132.067 58.6 131.07 58.6ZM144.9 82.316C144.9 83.0787 144.636 83.724 144.108 84.252C143.61 84.7507 142.979 85 142.216 85C141.483 85 140.867 84.7507 140.368 84.252C139.87 83.724 139.62 83.0787 139.62 82.316V55.124C139.62 54.3613 139.87 53.7307 140.368 53.232C140.896 52.704 141.542 52.44 142.304 52.44C143.067 52.44 143.683 52.704 144.152 53.232C144.651 53.7307 144.9 54.3613 144.9 55.124V82.316ZM156.76 82.316C156.76 83.0787 156.496 83.724 155.968 84.252C155.469 84.7507 154.838 85 154.076 85C153.342 85 152.726 84.7507 152.228 84.252C151.729 83.724 151.48 83.0787 151.48 82.316V55.124C151.48 54.3613 151.729 53.7307 152.228 53.232C152.756 52.704 153.401 52.44 154.164 52.44C154.926 52.44 155.542 52.704 156.012 53.232C156.51 53.7307 156.76 54.3613 156.76 55.124V82.316ZM165.935 75.276C164.938 75.276 164.395 74.7187 164.307 73.604L163.031 57.412C162.972 56.5027 163.207 55.74 163.735 55.124C164.292 54.508 165.011 54.2 165.891 54.2C166.771 54.2 167.49 54.508 168.047 55.124C168.604 55.74 168.839 56.5027 168.751 57.412L167.519 73.604C167.431 74.7187 166.903 75.276 165.935 75.276ZM165.627 85C164.776 85 164.116 84.78 163.647 84.34C163.207 83.8707 162.987 83.2107 162.987 82.36V81.612C162.987 80.7613 163.207 80.116 163.647 79.676C164.116 79.2067 164.776 78.972 165.627 78.972H166.199C167.05 78.972 167.695 79.2067 168.135 79.676C168.604 80.116 168.839 80.7613 168.839 81.612V82.36C168.839 83.2107 168.604 83.8707 168.135 84.34C167.695 84.78 167.05 85 166.199 85H165.627Z" fill="white"/>
</svg>
