<svg width="273" height="80" viewBox="0 0 273 80" fill="none" xmlns="http://www.w3.org/2000/svg">
<path d="M107.214 26.2H121.954C122.717 26.2 123.348 26.4493 123.846 26.948C124.374 27.4173 124.638 28.0333 124.638 28.796C124.638 29.5293 124.374 30.1307 123.846 30.6C123.348 31.04 122.717 31.26 121.954 31.26H109.634L110.03 30.512V39.092L109.678 38.74H119.974C120.737 38.74 121.368 38.9893 121.866 39.488C122.394 39.9573 122.658 40.5733 122.658 41.336C122.658 42.0693 122.394 42.6707 121.866 43.14C121.368 43.58 120.737 43.8 119.974 43.8H109.81L110.03 43.448V52.336L109.678 51.94H121.954C122.717 51.94 123.348 52.204 123.846 52.732C124.374 53.2307 124.638 53.8173 124.638 54.492C124.638 55.2253 124.374 55.8267 123.846 56.296C123.348 56.7653 122.717 57 121.954 57H107.214C106.452 57 105.806 56.7507 105.278 56.252C104.78 55.724 104.53 55.0787 104.53 54.316V28.884C104.53 28.1213 104.78 27.4907 105.278 26.992C105.806 26.464 106.452 26.2 107.214 26.2ZM148.542 33.02C149.305 33.02 149.935 33.2693 150.434 33.768C150.933 34.2667 151.182 34.912 151.182 35.704V54.316C151.182 55.0787 150.933 55.724 150.434 56.252C149.935 56.7507 149.305 57 148.542 57C147.779 57 147.149 56.7507 146.65 56.252C146.151 55.724 145.902 55.0787 145.902 54.316V52.16L146.87 52.556C146.87 52.9373 146.665 53.4067 146.254 53.964C145.843 54.492 145.286 55.02 144.582 55.548C143.878 56.076 143.042 56.5307 142.074 56.912C141.135 57.264 140.109 57.44 138.994 57.44C136.97 57.44 135.137 56.9267 133.494 55.9C131.851 54.844 130.546 53.4067 129.578 51.588C128.639 49.74 128.17 47.628 128.17 45.252C128.17 42.8467 128.639 40.7347 129.578 38.916C130.546 37.068 131.837 35.6307 133.45 34.604C135.063 33.548 136.853 33.02 138.818 33.02C140.079 33.02 141.238 33.2107 142.294 33.592C143.35 33.9733 144.259 34.4573 145.022 35.044C145.814 35.6307 146.415 36.232 146.826 36.848C147.266 37.4347 147.486 37.9333 147.486 38.344L145.902 38.916V35.704C145.902 34.9413 146.151 34.3107 146.65 33.812C147.149 33.284 147.779 33.02 148.542 33.02ZM139.654 52.6C140.945 52.6 142.074 52.2773 143.042 51.632C144.01 50.9867 144.758 50.1067 145.286 48.992C145.843 47.8773 146.122 46.6307 146.122 45.252C146.122 43.844 145.843 42.5827 145.286 41.468C144.758 40.3533 144.01 39.4733 143.042 38.828C142.074 38.1827 140.945 37.86 139.654 37.86C138.393 37.86 137.278 38.1827 136.31 38.828C135.342 39.4733 134.579 40.3533 134.022 41.468C133.494 42.5827 133.23 43.844 133.23 45.252C133.23 46.6307 133.494 47.8773 134.022 48.992C134.579 50.1067 135.342 50.9867 136.31 51.632C137.278 52.2773 138.393 52.6 139.654 52.6ZM155.535 53.348C155.242 52.9373 155.11 52.4093 155.139 51.764C155.168 51.1187 155.55 50.5613 156.283 50.092C156.752 49.7987 157.251 49.6813 157.779 49.74C158.307 49.7693 158.82 50.0333 159.319 50.532C160.17 51.3827 161.064 52.0427 162.003 52.512C162.942 52.9813 164.115 53.216 165.523 53.216C165.963 53.1867 166.447 53.128 166.975 53.04C167.503 52.9227 167.958 52.688 168.339 52.336C168.75 51.9547 168.955 51.3827 168.955 50.62C168.955 49.9747 168.735 49.4613 168.295 49.08C167.855 48.6987 167.268 48.376 166.535 48.112C165.831 47.848 165.039 47.5987 164.159 47.364C163.25 47.1 162.311 46.8067 161.343 46.484C160.404 46.1613 159.539 45.7507 158.747 45.252C157.955 44.724 157.31 44.0347 156.811 43.184C156.312 42.3333 156.063 41.2627 156.063 39.972C156.063 38.5053 156.474 37.2587 157.295 36.232C158.116 35.2053 159.172 34.4133 160.463 33.856C161.783 33.2987 163.162 33.02 164.599 33.02C165.508 33.02 166.462 33.1373 167.459 33.372C168.456 33.5773 169.41 33.9293 170.319 34.428C171.228 34.8973 171.991 35.528 172.607 36.32C172.93 36.76 173.12 37.288 173.179 37.904C173.238 38.52 172.959 39.0773 172.343 39.576C171.903 39.928 171.39 40.0893 170.803 40.06C170.216 40.0013 169.732 39.796 169.351 39.444C168.852 38.7987 168.178 38.2853 167.327 37.904C166.506 37.5227 165.552 37.332 164.467 37.332C164.027 37.332 163.543 37.3907 163.015 37.508C162.516 37.596 162.076 37.816 161.695 38.168C161.314 38.4907 161.123 39.0187 161.123 39.752C161.123 40.4267 161.343 40.9693 161.783 41.38C162.223 41.7613 162.81 42.084 163.543 42.348C164.306 42.5827 165.112 42.8173 165.963 43.052C166.843 43.2867 167.738 43.5653 168.647 43.888C169.556 44.2107 170.392 44.636 171.155 45.164C171.918 45.692 172.534 46.3813 173.003 47.232C173.472 48.0533 173.707 49.1093 173.707 50.4C173.707 51.896 173.267 53.172 172.387 54.228C171.507 55.284 170.407 56.0907 169.087 56.648C167.767 57.176 166.418 57.44 165.039 57.44C163.308 57.44 161.578 57.1467 159.847 56.56C158.116 55.944 156.679 54.8733 155.535 53.348ZM195.594 33.46C196.356 33.46 196.987 33.724 197.486 34.252C197.984 34.7507 198.234 35.3813 198.234 36.144V54.844C198.234 57.5427 197.72 59.684 196.694 61.268C195.696 62.8813 194.347 64.04 192.646 64.744C190.944 65.448 189.038 65.8 186.926 65.8C185.987 65.8 184.99 65.7267 183.934 65.58C182.878 65.4333 182.012 65.2133 181.338 64.92C180.458 64.5387 179.842 64.0547 179.49 63.468C179.167 62.9107 179.108 62.3093 179.314 61.664C179.578 60.8133 180.003 60.2267 180.59 59.904C181.176 59.6107 181.792 59.5813 182.438 59.816C182.907 59.9627 183.523 60.1827 184.286 60.476C185.048 60.7987 185.928 60.96 186.926 60.96C188.275 60.96 189.39 60.7693 190.27 60.388C191.179 60.036 191.854 59.42 192.294 58.54C192.763 57.6893 192.998 56.516 192.998 55.02V52.072L193.922 53.128C193.423 54.096 192.792 54.9027 192.03 55.548C191.296 56.164 190.416 56.6333 189.39 56.956C188.363 57.2787 187.19 57.44 185.87 57.44C184.315 57.44 182.951 57.088 181.778 56.384C180.634 55.6507 179.739 54.6533 179.094 53.392C178.448 52.1013 178.126 50.6347 178.126 48.992V36.144C178.126 35.3813 178.375 34.7507 178.874 34.252C179.372 33.724 180.003 33.46 180.766 33.46C181.528 33.46 182.159 33.724 182.658 34.252C183.156 34.7507 183.406 35.3813 183.406 36.144V47.408C183.406 49.3147 183.816 50.664 184.638 51.456C185.488 52.2187 186.662 52.6 188.158 52.6C189.184 52.6 190.05 52.4093 190.754 52.028C191.458 51.6173 192 51.0307 192.382 50.268C192.763 49.476 192.954 48.5227 192.954 47.408V36.144C192.954 35.3813 193.203 34.7507 193.702 34.252C194.2 33.724 194.831 33.46 195.594 33.46ZM218.162 26.2C220.978 26.2 223.075 26.86 224.454 28.18C225.833 29.5 226.522 31.4507 226.522 34.032C226.522 35.4107 226.185 36.628 225.51 37.684C224.835 38.7107 223.838 39.5173 222.518 40.104C221.198 40.6613 219.57 40.94 217.634 40.94L217.81 38.96C218.719 38.96 219.761 39.092 220.934 39.356C222.107 39.5907 223.237 40.0307 224.322 40.676C225.437 41.292 226.346 42.172 227.05 43.316C227.783 44.4307 228.15 45.868 228.15 47.628C228.15 49.564 227.827 51.148 227.182 52.38C226.566 53.612 225.745 54.5653 224.718 55.24C223.691 55.9147 222.591 56.384 221.418 56.648C220.245 56.8827 219.115 57 218.03 57H207.074C206.311 57 205.666 56.7507 205.138 56.252C204.639 55.724 204.39 55.0787 204.39 54.316V28.884C204.39 28.1213 204.639 27.4907 205.138 26.992C205.666 26.464 206.311 26.2 207.074 26.2H218.162ZM217.37 31.392H209.538L210.11 30.688V38.652L209.582 38.256H217.502C218.353 38.256 219.115 37.9773 219.79 37.42C220.465 36.8627 220.802 36.056 220.802 35C220.802 33.7387 220.479 32.8293 219.834 32.272C219.218 31.6853 218.397 31.392 217.37 31.392ZM217.722 43.448H209.714L210.11 43.096V52.38L209.67 51.94H218.03C219.379 51.94 220.45 51.588 221.242 50.884C222.034 50.1507 222.43 49.0653 222.43 47.628C222.43 46.308 222.166 45.3547 221.638 44.768C221.11 44.1813 220.479 43.8147 219.746 43.668C219.013 43.5213 218.338 43.448 217.722 43.448ZM237.754 54.316C237.754 55.0787 237.505 55.724 237.006 56.252C236.507 56.7507 235.877 57 235.114 57C234.351 57 233.721 56.7507 233.222 56.252C232.723 55.724 232.474 55.0787 232.474 54.316V36.144C232.474 35.3813 232.723 34.7507 233.222 34.252C233.721 33.724 234.351 33.46 235.114 33.46C235.877 33.46 236.507 33.724 237.006 34.252C237.505 34.7507 237.754 35.3813 237.754 36.144V54.316ZM235.07 30.6C234.073 30.6 233.369 30.4387 232.958 30.116C232.547 29.7933 232.342 29.2213 232.342 28.4V27.564C232.342 26.7133 232.562 26.1413 233.002 25.848C233.471 25.5253 234.175 25.364 235.114 25.364C236.141 25.364 236.859 25.5253 237.27 25.848C237.681 26.1707 237.886 26.7427 237.886 27.564V28.4C237.886 29.2507 237.666 29.8373 237.226 30.16C236.786 30.4533 236.067 30.6 235.07 30.6ZM248.9 54.316C248.9 55.0787 248.636 55.724 248.108 56.252C247.61 56.7507 246.979 57 246.216 57C245.483 57 244.867 56.7507 244.368 56.252C243.87 55.724 243.62 55.0787 243.62 54.316V27.124C243.62 26.3613 243.87 25.7307 244.368 25.232C244.896 24.704 245.542 24.44 246.304 24.44C247.067 24.44 247.683 24.704 248.152 25.232C248.651 25.7307 248.9 26.3613 248.9 27.124V54.316ZM260.76 54.316C260.76 55.0787 260.496 55.724 259.968 56.252C259.469 56.7507 258.838 57 258.076 57C257.342 57 256.726 56.7507 256.228 56.252C255.729 55.724 255.48 55.0787 255.48 54.316V27.124C255.48 26.3613 255.729 25.7307 256.228 25.232C256.756 24.704 257.401 24.44 258.164 24.44C258.926 24.44 259.542 24.704 260.012 25.232C260.51 25.7307 260.76 26.3613 260.76 27.124V54.316ZM269.935 47.276C268.938 47.276 268.395 46.7187 268.307 45.604L267.031 29.412C266.972 28.5027 267.207 27.74 267.735 27.124C268.292 26.508 269.011 26.2 269.891 26.2C270.771 26.2 271.49 26.508 272.047 27.124C272.604 27.74 272.839 28.5027 272.751 29.412L271.519 45.604C271.431 46.7187 270.903 47.276 269.935 47.276ZM269.627 57C268.776 57 268.116 56.78 267.647 56.34C267.207 55.8707 266.987 55.2107 266.987 54.36V53.612C266.987 52.7613 267.207 52.116 267.647 51.676C268.116 51.2067 268.776 50.972 269.627 50.972H270.199C271.05 50.972 271.695 51.2067 272.135 51.676C272.604 52.116 272.839 52.7613 272.839 53.612V54.36C272.839 55.2107 272.604 55.8707 272.135 56.34C271.695 56.78 271.05 57 270.199 57H269.627Z" fill="white"/>
<path d="M12.6316 56.8421L0 69.221L0 33.6842H12.6316M33.6842 49.0947L27.0737 43.4526L21.0526 49.0105V16.8421H33.6842M54.7368 42.1053L42.1053 54.7368V0L54.7368 0M66.5684 41.3053L58.9474 33.6842H80V54.7368L72.4631 47.2L42.1053 77.3053L27.4947 64.5895L11.5789 80H0L27.2421 53.3053L42.1053 65.8526" fill="white"/>
</svg>
