<svg width="50" height="50" viewBox="0 0 50 50" fill="none" xmlns="http://www.w3.org/2000/svg">
<rect width="50" height="50" rx="25" fill="#E040FB"/>
<path d="M21.536 26.584C21.28 26.584 21.0667 26.4987 20.896 26.328C20.7253 26.1573 20.64 25.944 20.64 25.688C20.64 25.432 20.7253 25.224 20.896 25.064C21.0667 24.904 21.28 24.824 21.536 24.824H28.048C28.304 24.824 28.5173 24.9093 28.688 25.08C28.8587 25.24 28.944 25.448 28.944 25.704C28.944 25.96 28.8587 26.1733 28.688 26.344C28.5173 26.504 28.304 26.584 28.048 26.584H21.536ZM24.768 29.704C24.4693 29.704 24.2187 29.608 24.016 29.416C23.824 29.224 23.728 28.9787 23.728 28.68V22.44C23.728 22.1413 23.8293 21.896 24.032 21.704C24.2347 21.512 24.4853 21.416 24.784 21.416C25.0933 21.416 25.3387 21.512 25.52 21.704C25.712 21.896 25.808 22.1413 25.808 22.44V28.68C25.808 28.9787 25.712 29.224 25.52 29.416C25.328 29.608 25.0773 29.704 24.768 29.704Z" fill="white"/>
</svg>
