<svg width="86" height="86" viewBox="0 0 86 86" fill="none" xmlns="http://www.w3.org/2000/svg">
<path d="M23 67V63C23 51.9544 31.9543 43 43 43C54.0456 43 63 51.9544 63 63V67" stroke="white" stroke-width="5" stroke-linecap="round"/>
<path d="M43 43C49.6276 43 55 37.6276 55 31C55 24.3726 49.6276 19 43 19C36.3724 19 31 24.3726 31 31C31 37.6276 36.3724 43 43 43Z" stroke="white" stroke-width="5" stroke-linecap="round" stroke-linejoin="round"/>
<path d="M43 83C65.0914 83 83 65.0914 83 43C83 20.9086 65.0914 3 43 3C20.9086 3 3 20.9086 3 43C3 65.0914 20.9086 83 43 83Z" stroke="white" stroke-width="5"/>
</svg>
